<svg width="574" height="360" viewBox="0 0 574 360" fill="none" xmlns="http://www.w3.org/2000/svg">
<rect x="2" y="2" width="570" height="356" rx="10" fill="white" stroke="#636EC5" stroke-width="4"/>
<path d="M223.191 177.951C222.981 178.396 222.768 178.839 222.557 179.279C221.849 179.985 220.942 180.458 219.958 180.636L68.4082 208.302C67.4684 208.474 66.4988 208.37 65.6168 208.003C65.2921 207.706 64.9698 207.405 64.6445 207.105L64.88 206.913L133.838 150.381C134.45 149.881 135.179 149.543 135.956 149.4C136.734 149.257 137.535 149.313 138.286 149.564L222.906 177.854L223.191 177.951Z" fill="#6C63FF"/>
<path d="M203.266 89.1877L129.765 62.9266C126.673 61.822 123.345 61.5501 120.116 62.138C116.886 62.726 113.868 64.1532 111.364 66.2763L51.7163 116.854C50.4206 117.092 49.2724 117.834 48.5233 118.918C47.7741 120.002 47.4853 121.338 47.7201 122.635L62.6292 204.305C62.8673 205.601 63.6097 206.749 64.6934 207.498C65.7772 208.247 67.1139 208.536 68.4103 208.301L219.96 180.635C221.256 180.396 222.404 179.654 223.153 178.57C223.902 177.487 224.191 176.15 223.956 174.854L209.047 93.184C208.809 91.8883 208.066 90.7401 206.983 89.9909C205.899 89.2418 204.562 88.953 203.266 89.1877ZM223.381 174.959C223.587 176.103 223.332 177.281 222.671 178.237C222.01 179.193 220.998 179.849 219.855 180.06L68.3053 207.726C67.1615 207.933 65.9825 207.678 65.0264 207.017C64.0703 206.356 63.4151 205.343 63.2043 204.2L48.2952 122.53C48.0878 121.386 48.3426 120.206 49.0036 119.25C49.6646 118.294 50.678 117.639 51.8213 117.429L111.469 66.8515C113.973 64.7283 116.991 63.3011 120.221 62.7132C123.45 62.1252 126.778 62.3972 129.87 63.5017L203.371 89.7629C204.515 89.5555 205.694 89.8103 206.651 90.4713C207.607 91.1323 208.262 92.1456 208.472 93.289L223.381 174.959Z" fill="#3F3D56"/>
<path d="M136.01 149.214C135.509 149.307 134.996 149.314 134.493 149.235L134.401 149.221L134.348 149.03C134.299 149.067 134.249 149.102 134.198 149.137L134.145 149.173L134.082 149.158C133.952 149.127 133.82 149.088 133.692 149.044L75.318 128.959L64.229 68.2146C63.9731 66.8038 64.2873 65.3491 65.1025 64.1697C65.9178 62.9903 67.1677 62.1824 68.5779 61.9233L168.077 43.7594C169.488 43.5035 170.943 43.8177 172.122 44.633C173.302 45.4482 174.11 46.6981 174.369 48.1083L185.472 108.93L185.406 108.985L138.118 148.236C137.51 148.737 136.784 149.073 136.01 149.214Z" fill="white"/>
<path d="M136.038 149.356C135.521 149.452 134.992 149.46 134.473 149.378L134.287 149.349L134.265 149.268L134.176 149.328L134.051 149.298C133.915 149.266 133.779 149.226 133.647 149.181L75.1917 129.068L64.0873 68.2392C63.8245 66.7903 64.1471 65.2964 64.9844 64.0851C65.8218 62.8737 67.1054 62.044 68.5537 61.7779L168.053 43.614C169.502 43.3512 170.996 43.6739 172.207 44.5112C173.419 45.3485 174.248 46.6321 174.514 48.0804L185.633 108.986L138.213 148.347C137.586 148.864 136.837 149.211 136.038 149.356ZM134.749 148.826C135.861 148.936 136.973 148.602 137.84 147.897L184.996 108.755L173.939 48.1854C173.701 46.8896 172.959 45.7411 171.875 44.9919C170.791 44.2427 169.455 43.954 168.158 44.1892L68.6587 62.3531C67.3628 62.5912 66.2143 63.3335 65.4651 64.4173C64.716 65.5011 64.4273 66.8379 64.6624 68.1342L75.7054 128.626L79.5067 129.933L133.837 148.628C133.911 148.653 133.986 148.677 134.061 148.697C134.124 148.651 134.185 148.603 134.245 148.554L134.593 148.265L134.749 148.826Z" fill="#3F3D56"/>
<path d="M207.263 90.6501L188.536 106.193L185.31 108.87L138.022 148.122C137.434 148.607 136.731 148.932 135.981 149.068C135.497 149.158 135 149.165 134.514 149.089C134.379 149.072 134.245 149.046 134.114 149.014C133.986 148.983 133.861 148.947 133.737 148.904L79.407 130.209L75.4438 128.847L48.5182 119.582C48.4448 119.556 48.3847 119.502 48.3507 119.432C48.3168 119.362 48.3119 119.281 48.337 119.208C48.3623 119.135 48.4156 119.075 48.4852 119.041C48.5548 119.007 48.6349 119.002 48.7081 119.027L75.3231 128.185L79.2862 129.548L133.927 148.349C134.108 148.412 134.294 148.46 134.482 148.495C134.563 148.51 134.645 148.521 134.727 148.53C135.247 148.591 135.773 148.547 136.276 148.399C136.778 148.251 137.245 148.003 137.648 147.67L185.19 108.212L188.415 105.534L206.889 90.2011C206.919 90.1766 206.953 90.1582 206.99 90.1468C207.026 90.1355 207.065 90.1314 207.103 90.1349C207.141 90.1385 207.178 90.1495 207.212 90.1673C207.246 90.1852 207.276 90.2095 207.301 90.239C207.325 90.2685 207.343 90.3025 207.355 90.3391C207.366 90.3757 207.37 90.4142 207.367 90.4524C207.363 90.4905 207.352 90.5276 207.334 90.5616C207.316 90.5955 207.292 90.6256 207.263 90.6501Z" fill="#3F3D56"/>
<path d="M88.2862 77.7874L80.2343 79.2573C79.6241 79.3687 78.9947 79.2332 78.4845 78.8805C77.9743 78.5278 77.6251 77.9869 77.5137 77.3767C77.4023 76.7666 77.5379 76.1372 77.8906 75.627C78.2433 75.1168 78.7842 74.7676 79.3943 74.6562L87.4463 73.1863C88.0564 73.0749 88.6859 73.2105 89.1961 73.5631C89.7063 73.9158 90.0555 74.4567 90.1668 75.0669C90.2782 75.677 90.1427 76.3064 89.79 76.8166C89.4373 77.3268 88.8964 77.676 88.2862 77.7874Z" fill="#6C63FF"/>
<path d="M99.1941 83.8226L81.6522 87.0249C81.0421 87.1363 80.4127 87.0007 79.9025 86.6481C79.3923 86.2954 79.0431 85.7545 78.9317 85.1443C78.8203 84.5342 78.9559 83.9048 79.3085 83.3946C79.6612 82.8844 80.2021 82.5352 80.8123 82.4238L98.3541 79.2215C98.9643 79.1101 99.5936 79.2456 100.104 79.5983C100.614 79.951 100.963 80.4919 101.075 81.1021C101.186 81.7122 101.05 82.3416 100.698 82.8518C100.345 83.362 99.8042 83.7112 99.1941 83.8226Z" fill="#E6E6E6"/>
<path d="M151.984 95.5797L102.234 104.662C101.624 104.773 100.995 104.637 100.485 104.285C99.9743 103.932 99.6251 103.391 99.5137 102.781C99.4023 102.171 99.5379 101.541 99.8906 101.031C100.243 100.521 100.784 100.172 101.394 100.06L151.144 90.9785C151.754 90.8671 152.384 91.0027 152.894 91.3554C153.404 91.7081 153.753 92.249 153.865 92.8591C153.976 93.4693 153.84 94.0987 153.488 94.6089C153.135 95.1191 152.594 95.4683 151.984 95.5797Z" fill="#6C63FF"/>
<path d="M158.212 103.654L98.9725 114.468C98.3624 114.58 97.733 114.444 97.2228 114.091C96.7126 113.739 96.3634 113.198 96.252 112.588C96.1406 111.978 96.2762 111.348 96.6289 110.838C96.9815 110.328 97.5224 109.979 98.1326 109.867L157.372 99.0528C157.982 98.9414 158.612 99.0769 159.122 99.4296C159.632 99.7823 159.981 100.323 160.093 100.933C160.204 101.544 160.069 102.173 159.716 102.683C159.363 103.193 158.822 103.543 158.212 103.654Z" fill="#E6E6E6"/>
<path d="M159.79 112.283L100.551 123.097C99.9405 123.209 99.3111 123.073 98.8009 122.72C98.2907 122.368 97.9415 121.827 97.8301 121.217C97.7187 120.606 97.8543 119.977 98.207 119.467C98.5597 118.957 99.1006 118.607 99.7107 118.496L158.95 107.682C159.56 107.57 160.19 107.706 160.7 108.059C161.21 108.411 161.559 108.952 161.671 109.562C161.782 110.172 161.647 110.802 161.294 111.312C160.941 111.822 160.4 112.171 159.79 112.283Z" fill="#E6E6E6"/>
<path d="M517.563 316.288C517.04 316.892 516.513 317.49 515.991 318.084C514.576 318.877 512.953 319.219 511.338 319.065L262.558 295.895C261.015 295.752 259.546 295.166 258.33 294.206C257.953 293.599 257.581 292.988 257.205 292.377L257.656 292.181L390.101 234.101C391.277 233.588 392.563 233.379 393.84 233.497C395.117 233.614 396.344 234.053 397.405 234.772L517.16 316.012L517.563 316.288Z" fill="#6C63FF"/>
<path d="M525.323 168.946L422.043 95.7445C417.699 92.6656 412.622 90.7836 407.32 90.2872C402.019 89.7908 396.681 90.6976 391.841 92.9165L276.543 145.775C274.415 145.58 272.296 146.237 270.652 147.601C269.008 148.965 267.971 150.926 267.77 153.053L255.283 287.121C255.088 289.249 255.744 291.367 257.108 293.012C258.473 294.656 260.434 295.693 262.561 295.893L511.342 319.064C513.469 319.259 515.587 318.602 517.232 317.238C518.876 315.874 519.912 313.913 520.114 311.786L532.601 177.719C532.796 175.591 532.139 173.473 530.775 171.828C529.411 170.184 527.45 169.147 525.323 168.946ZM519.17 311.698C518.991 313.575 518.076 315.303 516.625 316.507C515.175 317.71 513.307 318.29 511.429 318.12L262.649 294.949C260.772 294.771 259.043 293.856 257.839 292.406C256.636 290.955 256.056 289.086 256.227 287.209L268.714 153.141C268.891 151.264 269.806 149.534 271.257 148.33C272.708 147.126 274.577 146.547 276.455 146.72L391.753 93.8607C396.593 91.6417 401.931 90.735 407.232 91.2313C412.534 91.7277 417.611 93.6098 421.955 96.6886L525.235 169.89C527.112 170.067 528.842 170.982 530.046 172.433C531.25 173.884 531.829 175.753 531.657 177.631L519.17 311.698Z" fill="#3F3D56"/>
<path d="M394.009 233.226C393.187 233.152 392.383 232.939 391.632 232.595L391.494 232.532L391.494 232.212C391.401 232.247 391.307 232.281 391.214 232.312L391.115 232.345L391.024 232.294C390.833 232.188 390.645 232.071 390.464 231.946L308.102 175.014L317.39 75.2977C317.608 72.9826 318.736 70.8485 320.525 69.3637C322.315 67.879 324.621 67.1648 326.936 67.3778L490.272 82.5905C492.588 82.8087 494.722 83.9364 496.206 85.7262C497.691 87.5159 498.405 89.8215 498.192 92.1372L488.893 191.981L488.766 192.038L397.729 232.623C396.561 233.138 395.28 233.346 394.009 233.226Z" fill="white"/>
<path d="M393.986 233.46C393.137 233.384 392.307 233.164 391.532 232.809L391.255 232.682L391.256 232.546L391.09 232.601L390.908 232.5C390.71 232.39 390.515 232.269 390.328 232.139L307.853 175.129L317.153 75.274C317.377 72.8963 318.535 70.7045 320.373 69.1797C322.211 67.6548 324.579 66.9213 326.958 67.1401L490.294 82.3527C492.671 82.5769 494.863 83.7351 496.388 85.5732C497.913 87.4113 498.646 89.7792 498.428 92.1574L489.115 192.139L397.825 232.837C396.62 233.37 395.298 233.584 393.986 233.46ZM392.205 232.067C393.894 232.727 395.776 232.693 397.439 231.971L488.223 191.499L497.483 92.0695C497.679 89.9416 497.023 87.8229 495.658 86.1783C494.294 84.5337 492.333 83.4974 490.206 83.2969L326.87 68.0842C324.742 67.8884 322.623 68.5447 320.978 69.9091C319.334 71.2735 318.298 73.2345 318.097 75.3619L308.848 174.664L314.212 178.37L390.868 231.359C390.972 231.431 391.078 231.5 391.187 231.565C391.305 231.521 391.422 231.473 391.538 231.422L392.207 231.123L392.205 232.067Z" fill="#3F3D56"/>
<path d="M530.931 172.98L494.879 189.05L488.669 191.819L397.632 232.404C396.501 232.904 395.261 233.105 394.03 232.988C393.234 232.916 392.457 232.71 391.73 232.378C391.527 232.292 391.33 232.194 391.138 232.085C390.953 231.982 390.773 231.87 390.598 231.749L313.943 178.76L308.35 174.896L270.36 148.636C270.257 148.563 270.187 148.452 270.165 148.328C270.142 148.204 270.17 148.076 270.241 147.972C270.313 147.869 270.422 147.798 270.546 147.776C270.669 147.754 270.797 147.781 270.9 147.852L308.452 173.811L314.044 177.674L391.138 230.966C391.393 231.143 391.662 231.3 391.941 231.436C392.06 231.495 392.183 231.549 392.307 231.599C393.092 231.922 393.934 232.083 394.783 232.072C395.632 232.061 396.47 231.879 397.246 231.535L488.77 190.738L494.98 187.969L530.545 172.116C530.601 172.091 530.663 172.077 530.725 172.075C530.787 172.073 530.849 172.084 530.907 172.106C530.965 172.128 531.018 172.162 531.063 172.204C531.108 172.247 531.145 172.298 531.17 172.355C531.195 172.412 531.209 172.473 531.211 172.535C531.213 172.597 531.202 172.659 531.18 172.717C531.158 172.775 531.124 172.829 531.082 172.874C531.039 172.919 530.988 172.955 530.931 172.98Z" fill="#3F3D56"/>
<path d="M350.764 100.786L337.546 99.5552C336.544 99.462 335.621 98.9746 334.978 98.2004C334.336 97.4262 334.028 96.4285 334.121 95.4269C334.214 94.4253 334.702 93.5018 335.476 92.8595C336.25 92.2173 337.248 91.9088 338.249 92.0021L351.467 93.2332C352.469 93.3265 353.392 93.8138 354.035 94.5881C354.677 95.3623 354.985 96.3599 354.892 97.3615C354.799 98.3631 354.311 99.2866 353.537 99.9289C352.763 100.571 351.765 100.88 350.764 100.786Z" fill="#6C63FF"/>
<path d="M365.158 114.985L336.362 112.303C335.361 112.21 334.437 111.723 333.795 110.948C333.152 110.174 332.844 109.177 332.937 108.175C333.031 107.173 333.518 106.25 334.292 105.608C335.066 104.965 336.064 104.657 337.066 104.75L365.862 107.432C366.863 107.525 367.787 108.013 368.429 108.787C369.072 109.561 369.38 110.559 369.287 111.56C369.193 112.562 368.706 113.486 367.932 114.128C367.158 114.77 366.16 115.079 365.158 114.985Z" fill="#E6E6E6"/>
<path d="M442.444 156.464L360.776 148.858C359.775 148.765 358.851 148.277 358.209 147.503C357.567 146.729 357.258 145.731 357.351 144.73C357.445 143.728 357.932 142.805 358.706 142.162C359.48 141.52 360.478 141.212 361.48 141.305L443.148 148.911C444.149 149.004 445.073 149.492 445.715 150.266C446.357 151.04 446.666 152.038 446.572 153.039C446.479 154.041 445.992 154.965 445.218 155.607C444.443 156.249 443.446 156.558 442.444 156.464Z" fill="#6C63FF"/>
<path d="M448.632 171.802L351.386 162.745C350.384 162.651 349.46 162.164 348.818 161.39C348.176 160.616 347.867 159.618 347.961 158.616C348.054 157.615 348.541 156.691 349.316 156.049C350.09 155.407 351.087 155.098 352.089 155.192L449.335 164.249C450.337 164.342 451.26 164.829 451.903 165.604C452.545 166.378 452.853 167.376 452.76 168.377C452.667 169.379 452.18 170.302 451.405 170.945C450.631 171.587 449.633 171.895 448.632 171.802Z" fill="#E6E6E6"/>
<path d="M447.312 185.964L350.065 176.907C349.064 176.814 348.14 176.326 347.498 175.552C346.856 174.778 346.547 173.78 346.64 172.779C346.734 171.777 347.221 170.853 347.995 170.211C348.769 169.569 349.767 169.26 350.769 169.354L448.015 178.411C449.017 178.504 449.94 178.992 450.582 179.766C451.225 180.54 451.533 181.538 451.44 182.539C451.347 183.541 450.859 184.464 450.085 185.107C449.311 185.749 448.313 186.057 447.312 185.964Z" fill="#E6E6E6"/>
</svg>
