<svg width="254" height="206" viewBox="0 0 254 206" fill="none" xmlns="http://www.w3.org/2000/svg">
<path d="M28.9309 131.201C23.6178 131.201 19.1781 130.182 15.6118 128.144C12.0454 126.033 9.3525 122.977 7.53295 118.974C5.71339 114.971 4.69444 110.058 4.4761 104.235L18.3411 101.506C18.4866 104.927 18.8869 107.947 19.542 110.567C20.2698 113.187 21.3252 115.225 22.708 116.681C24.1637 118.064 26.056 118.755 28.385 118.755C31.0052 118.755 32.8611 117.991 33.9528 116.463C35.0446 114.861 35.5904 112.86 35.5904 110.458C35.5904 106.601 34.7171 103.435 32.9703 100.96C31.2235 98.4854 28.8945 96.0108 25.9832 93.5362L14.8475 83.7106C11.7179 81.0177 9.20693 78.0336 7.3146 74.7584C5.49505 71.4104 4.58527 67.2982 4.58527 62.4218C4.58527 55.4348 6.62317 50.0489 10.699 46.2642C14.7748 42.4795 20.3426 40.5872 27.4025 40.5872C31.551 40.5872 35.0082 41.2422 37.7739 42.5523C40.5396 43.7896 42.7231 45.5364 44.3243 47.7926C45.9983 50.0489 47.2356 52.6326 48.0362 55.5439C48.8368 58.3824 49.3463 61.4029 49.5646 64.6053L35.8088 67.0071C35.6632 64.2414 35.3357 61.7668 34.8262 59.5833C34.3895 57.3999 33.5525 55.6895 32.3152 54.4522C31.1507 53.2149 29.404 52.5963 27.0749 52.5963C24.6731 52.5963 22.8172 53.3969 21.5071 54.9981C20.2698 56.5265 19.6512 58.4552 19.6512 60.7842C19.6512 63.7683 20.2698 66.2429 21.5071 68.208C22.7444 70.1003 24.5276 72.0655 26.8566 74.1034L37.8831 83.8198C41.5222 86.8766 44.6154 90.4793 47.1628 94.6279C49.7829 98.7037 51.093 103.653 51.093 109.475C51.093 113.697 50.1469 117.445 48.2545 120.72C46.435 123.995 43.8512 126.579 40.5032 128.472C37.228 130.291 33.3706 131.201 28.9309 131.201ZM64.9734 130V41.5698H86.1529C92.1211 41.5698 97.143 42.2976 101.219 43.7532C105.367 45.1361 108.497 47.5379 110.608 50.9587C112.791 54.3794 113.883 59.0375 113.883 64.9328C113.883 68.4991 113.555 71.7016 112.9 74.5401C112.245 77.3786 111.117 79.8168 109.516 81.8547C107.988 83.8198 105.84 85.3482 103.075 86.4399L115.411 130H99.2537L88.5548 89.4968H81.131V130H64.9734ZM81.131 79.3437H86.1529C89.2826 79.3437 91.7572 78.907 93.5767 78.0336C95.469 77.0874 96.8155 75.6318 97.6161 73.6667C98.4167 71.6288 98.817 69.045 98.817 65.9154C98.817 61.4757 97.98 58.1641 96.306 55.9806C94.7048 53.7244 91.6116 52.5963 87.0263 52.5963H81.131V79.3437ZM130.755 130V41.5698H146.804V78.5795H164.817V41.5698H180.975V130H164.817V90.0426H146.804V130H130.755ZM198.872 130V41.5698H220.052C226.02 41.5698 231.042 42.2976 235.118 43.7532C239.267 45.1361 242.396 47.5379 244.507 50.9587C246.69 54.3794 247.782 59.0375 247.782 64.9328C247.782 68.4991 247.455 71.7016 246.799 74.5401C246.144 77.3786 245.016 79.8168 243.415 81.8547C241.887 83.8198 239.74 85.3482 236.974 86.4399L249.31 130H233.153L222.454 89.4968H215.03V130H198.872ZM215.03 79.3437H220.052C223.182 79.3437 225.656 78.907 227.476 78.0336C229.368 77.0874 230.715 75.6318 231.515 73.6667C232.316 71.6288 232.716 69.045 232.716 65.9154C232.716 61.4757 231.879 58.1641 230.205 55.9806C228.604 53.7244 225.511 52.5963 220.925 52.5963H215.03V79.3437Z" fill="white"/>
<path d="M133.445 189.227V143.278H137.813V163.643H152.278V143.278H156.59V189.227H152.278V166.876H137.813V189.227H133.445ZM176.718 189.794C173.617 189.794 171.197 189.245 169.457 188.149C167.755 187.014 166.583 185.464 165.94 183.497C165.297 181.493 164.975 179.224 164.975 176.69V143.278H169.173V176.803C169.173 178.581 169.362 180.207 169.741 181.682C170.157 183.119 170.913 184.253 172.01 185.085C173.106 185.917 174.676 186.333 176.718 186.333C178.685 186.333 180.216 185.917 181.313 185.085C182.41 184.216 183.166 183.062 183.582 181.625C184.036 180.188 184.263 178.581 184.263 176.803V143.278H188.404V176.69C188.404 179.224 188.063 181.493 187.383 183.497C186.702 185.464 185.511 187.014 183.809 188.149C182.107 189.245 179.743 189.794 176.718 189.794ZM196.806 189.227V143.278H206.676C208.756 143.278 210.515 143.542 211.952 144.072C213.389 144.601 214.542 145.376 215.412 146.398C216.282 147.419 216.906 148.648 217.284 150.085C217.7 151.484 217.908 153.035 217.908 154.736C217.908 156.211 217.719 157.648 217.341 159.048C217.001 160.409 216.414 161.582 215.582 162.565C214.75 163.51 213.578 164.134 212.065 164.437C213.843 164.928 215.242 165.779 216.263 166.99C217.284 168.162 217.984 169.542 218.362 171.131C218.778 172.681 218.986 174.288 218.986 175.952C218.986 177.768 218.816 179.488 218.475 181.115C218.173 182.703 217.606 184.102 216.774 185.312C215.979 186.523 214.883 187.487 213.483 188.205C212.084 188.886 210.307 189.227 208.151 189.227H196.806ZM201.117 185.993H207.3C210.288 185.993 212.273 185.18 213.257 183.554C214.278 181.928 214.788 179.394 214.788 175.952C214.788 174.099 214.561 172.454 214.107 171.017C213.654 169.58 212.878 168.464 211.782 167.67C210.723 166.838 209.267 166.422 207.414 166.422H201.117V185.993ZM201.117 163.075H207.357C209.134 163.075 210.496 162.735 211.441 162.054C212.387 161.336 213.049 160.371 213.427 159.161C213.805 157.913 213.994 156.438 213.994 154.736C213.994 152.883 213.729 151.352 213.2 150.142C212.708 148.931 211.838 148.043 210.59 147.475C209.342 146.908 207.546 146.624 205.201 146.624H201.117V163.075ZM235.888 189.794C233.392 189.794 231.312 189.283 229.648 188.262C228.022 187.203 226.793 185.747 225.961 183.894C225.129 182.003 224.618 179.81 224.429 177.314L228.23 176.179C228.419 178.07 228.759 179.791 229.251 181.341C229.743 182.854 230.518 184.064 231.577 184.972C232.636 185.842 234.092 186.277 235.945 186.277C237.987 186.277 239.575 185.747 240.71 184.688C241.844 183.629 242.412 181.947 242.412 179.64C242.412 177.597 241.901 175.839 240.88 174.364C239.897 172.889 238.535 171.339 236.796 169.712L228.684 161.941C227.247 160.542 226.188 159.104 225.507 157.63C224.826 156.117 224.486 154.472 224.486 152.694C224.486 149.518 225.431 147.078 227.322 145.376C229.213 143.675 231.728 142.824 234.867 142.824C236.493 142.824 237.949 143.032 239.235 143.448C240.559 143.864 241.674 144.544 242.582 145.49C243.527 146.398 244.265 147.589 244.794 149.064C245.324 150.539 245.683 152.335 245.872 154.453L242.185 155.417C242.033 153.488 241.712 151.843 241.22 150.482C240.767 149.083 240.029 148.024 239.008 147.305C238.025 146.587 236.644 146.227 234.867 146.227C232.976 146.227 231.425 146.719 230.215 147.702C229.005 148.686 228.4 150.217 228.4 152.297C228.4 153.545 228.627 154.68 229.081 155.701C229.572 156.722 230.423 157.819 231.633 158.991L239.745 166.649C241.561 168.351 243.13 170.242 244.454 172.322C245.777 174.402 246.439 176.747 246.439 179.356C246.439 181.663 245.985 183.592 245.078 185.142C244.208 186.693 242.979 187.865 241.391 188.659C239.802 189.416 237.968 189.794 235.888 189.794Z" fill="white"/>
</svg>
