<svg width="1080" height="1080" viewBox="0 0 1080 1080" fill="none" xmlns="http://www.w3.org/2000/svg">
<path d="M212.487 549.379C193.114 549.379 176.926 545.663 163.923 538.233C150.92 530.537 141.101 519.391 134.466 504.796C127.832 490.2 124.117 472.287 123.321 451.057L173.875 441.106C174.405 453.578 175.865 464.591 178.253 474.145C180.907 483.698 184.755 491.129 189.797 496.436C195.105 501.478 202.004 504 210.496 504C220.05 504 226.817 501.213 230.797 495.64C234.778 489.802 236.768 482.504 236.768 473.747C236.768 459.682 233.584 448.138 227.215 439.115C220.846 430.093 212.354 421.07 201.739 412.047L161.137 376.221C149.725 366.403 140.57 355.522 133.67 343.58C127.036 331.373 123.719 316.379 123.719 298.599C123.719 273.123 131.149 253.485 146.01 239.686C160.871 225.886 181.172 218.987 206.914 218.987C222.04 218.987 234.645 221.375 244.73 226.152C254.814 230.663 262.775 237.032 268.613 245.259C274.717 253.485 279.228 262.906 282.148 273.521C285.067 283.871 286.924 294.884 287.72 306.56L237.565 315.318C237.034 305.234 235.84 296.211 233.982 288.25C232.39 280.288 229.338 274.052 224.827 269.541C220.581 265.029 214.212 262.774 205.72 262.774C196.962 262.774 190.195 265.693 185.418 271.531C180.907 277.104 178.651 284.136 178.651 292.628C178.651 303.509 180.907 312.531 185.418 319.697C189.93 326.596 196.431 333.761 204.923 341.192L245.128 376.62C258.396 387.765 269.675 400.901 278.963 416.028C288.517 430.889 293.293 448.934 293.293 470.164C293.293 485.556 289.843 499.223 282.944 511.165C276.309 523.107 266.888 532.527 254.681 539.427C242.739 546.062 228.674 549.379 212.487 549.379ZM324 545V222.569H401.224C422.985 222.569 441.296 225.223 456.157 230.531C471.283 235.573 482.694 244.33 490.39 256.803C498.352 269.275 502.332 286.259 502.332 307.755C502.332 320.758 501.138 332.435 498.75 342.784C496.361 353.134 492.248 362.024 486.41 369.454C480.837 376.619 473.008 382.192 462.924 386.173L507.905 545H448.992L409.982 397.319H382.913V545H324ZM382.913 360.299H401.224C412.635 360.299 421.658 358.707 428.293 355.522C435.192 352.072 440.102 346.765 443.021 339.6C445.94 332.169 447.4 322.748 447.4 311.337C447.4 295.149 444.348 283.075 438.244 275.114C432.406 266.887 421.127 262.774 404.409 262.774H382.913V360.299ZM543.948 545V222.569H602.464V357.512H668.144V222.569H727.057V545H668.144V399.309H602.464V545H543.948ZM772.411 545V222.569H849.636C871.396 222.569 889.707 225.223 904.568 230.531C919.695 235.573 931.106 244.33 938.802 256.803C946.763 269.275 950.744 286.259 950.744 307.755C950.744 320.758 949.549 332.435 947.161 342.784C944.773 353.134 940.659 362.024 934.821 369.454C929.248 376.619 921.42 382.192 911.335 386.173L956.316 545H897.403L858.393 397.319H831.325V545H772.411ZM831.325 360.299H849.636C861.047 360.299 870.069 358.707 876.704 355.522C883.604 352.072 888.513 346.765 891.432 339.6C894.351 332.169 895.811 322.748 895.811 311.337C895.811 295.149 892.759 283.075 886.655 275.114C880.817 266.887 869.539 262.774 852.82 262.774H831.325V360.299Z" fill="#00807D"/>
<path d="M406.075 821.719V627.26H428.952V647.11C435.457 639.484 442.634 633.764 450.484 629.951C458.334 625.914 466.409 623.896 474.707 623.896C481.436 623.896 487.604 625.69 493.211 629.279C499.043 632.867 503.192 639.484 505.659 649.128C512.388 640.83 519.79 634.549 527.864 630.288C535.939 626.026 544.462 623.896 553.433 623.896C559.04 623.896 564.311 625.241 569.246 627.933C574.404 630.624 578.554 635.222 581.694 641.727C584.834 648.231 586.404 657.091 586.404 668.305V821.719H563.526V668.978C563.526 657.539 561.62 650.025 557.807 646.437C554.218 642.624 549.62 640.717 544.013 640.717C537.733 640.717 531.453 642.512 525.173 646.1C518.892 649.689 512.949 654.623 507.342 660.903C507.566 662.025 507.678 663.259 507.678 664.604C507.902 665.726 508.014 666.959 508.014 668.305V821.719H484.8V668.978C484.8 657.539 482.894 650.025 479.081 646.437C475.492 642.624 470.894 640.717 465.287 640.717C459.231 640.717 453.063 642.512 446.783 646.1C440.503 649.689 434.56 654.511 428.952 660.567V821.719H406.075ZM649.504 824.747C641.653 824.747 634.813 822.841 628.981 819.028C623.15 814.991 618.552 809.72 615.187 803.215C612.047 796.487 610.477 789.197 610.477 781.347C610.477 771.478 611.823 763.067 614.514 756.114C617.43 749.161 621.916 742.994 627.972 737.611C634.252 732.003 642.326 726.62 652.195 721.462C662.288 716.079 674.512 710.135 688.866 703.631V689.837C688.866 677.949 688.081 668.641 686.511 661.913C685.166 654.96 682.698 650.025 679.11 647.11C675.745 644.194 670.923 642.736 664.643 642.736C659.484 642.736 654.887 643.745 650.849 645.764C646.812 647.783 643.56 651.259 641.093 656.193C638.626 660.903 637.392 667.52 637.392 676.043V682.772L613.169 682.435C613.393 662.698 617.542 648.119 625.617 638.699C633.915 629.054 647.373 624.232 665.989 624.232C683.483 624.232 695.707 629.503 702.66 640.045C709.838 650.362 713.426 666.511 713.426 688.491V783.029C713.426 786.394 713.538 790.767 713.763 796.15C713.987 801.309 714.211 806.243 714.435 810.953C714.66 815.663 714.884 819.252 715.108 821.719H693.24C692.792 817.458 692.119 812.748 691.221 807.589C690.324 802.206 689.764 797.945 689.539 794.804C686.848 802.655 682.026 809.608 675.073 815.663C668.344 821.719 659.821 824.747 649.504 824.747ZM657.242 803.888C662.176 803.888 666.662 802.655 670.699 800.187C674.736 797.72 678.325 794.804 681.465 791.44C684.605 787.851 687.072 784.263 688.866 780.674V720.116C679.222 725.05 670.923 729.536 663.97 733.573C657.242 737.611 651.746 741.536 647.485 745.349C643.223 749.161 640.083 753.535 638.065 758.47C636.046 763.18 635.037 768.787 635.037 775.291C635.037 785.609 637.28 793.01 641.766 797.496C646.251 801.757 651.41 803.888 657.242 803.888ZM742.851 885.642V627.26H767.411V643.409C771.448 638.474 776.495 634.101 782.55 630.288C788.606 626.251 796.008 624.232 804.755 624.232C814.175 624.232 821.689 626.475 827.296 630.961C833.128 635.222 837.613 641.054 840.754 648.455C843.894 655.857 846.024 664.156 847.146 673.352C848.267 682.547 848.828 691.968 848.828 701.612V742.657C848.828 759.255 847.482 773.721 844.791 786.057C842.099 798.169 837.277 807.701 830.324 814.654C823.595 821.383 814.175 824.747 802.064 824.747C794.213 824.747 787.373 822.729 781.541 818.691C775.934 814.654 771.224 810.505 767.411 806.243V885.642H742.851ZM798.363 805.234C805.764 805.234 811.259 802.879 814.848 798.169C818.661 793.459 821.128 786.506 822.25 777.31C823.595 767.89 824.268 756.563 824.268 743.33V701.612C824.268 689.052 823.595 678.51 822.25 669.987C821.128 661.24 818.661 654.623 814.848 650.138C811.035 645.652 805.316 643.409 797.69 643.409C791.41 643.409 785.578 645.091 780.195 648.455C775.037 651.82 770.775 655.184 767.411 658.548V791.104C770.999 794.917 775.373 798.281 780.532 801.197C785.915 803.888 791.858 805.234 798.363 805.234Z" fill="#00807D"/>
<path d="M200.804 698.905L263.299 819.017C265.651 821.078 270.355 823.432 275.395 819.017L338.902 697.14C349.99 680.36 355.03 648.566 338.902 622.069C331.846 613.238 322.773 598.225 294.549 587.627C284.469 584.978 266.322 580.561 244.146 587.628C214.916 594.691 167.54 641.499 200.804 698.905Z" fill="#00807D"/>
<circle cx="271.257" cy="661.749" r="31.175" fill="white"/>
</svg>
